<svg width="20" height="20" viewBox="0 0 20 20" fill="none" xmlns="http://www.w3.org/2000/svg">
<rect width="20" height="20" fill="#F5F5F5"/>
<g id="Desktop - 4">
<rect width="1600" height="1819" transform="translate(-246 -1003)" fill="white"/>
<g id="Rectangle 1" filter="url(#filter0_d_0_1)">
<rect x="-28" y="-519" width="373" height="567" rx="20" fill="white"/>
</g>
<g id="Rectangle 9" filter="url(#filter1_d_0_1)">
<rect x="-28" y="113" width="373" height="567" rx="20" fill="white"/>
</g>
<g id="akar-icons:link-chain">
<g id="Group">
<path id="Vector" d="M11.2864 8.7133C10.6038 8.031 9.67822 7.64771 8.71309 7.64771C7.74797 7.64771 6.82235 8.031 6.13976 8.7133L3.56559 11.2866C2.88299 11.9692 2.49951 12.895 2.49951 13.8604C2.49951 14.8257 2.88299 15.7515 3.56559 16.4341C4.24819 17.1167 5.174 17.5002 6.13934 17.5002C7.10469 17.5002 8.03049 17.1167 8.71309 16.4341L9.99976 15.1475" stroke="black" stroke-width="1.66667" stroke-linecap="round" stroke-linejoin="round"/>
<path id="Vector_2" d="M8.71289 11.2867C9.39548 11.969 10.3211 12.3523 11.2862 12.3523C12.2513 12.3523 13.177 11.969 13.8596 11.2867L16.4337 8.71334C17.1163 8.03074 17.4998 7.10493 17.4998 6.13959C17.4998 5.17424 17.1163 4.24844 16.4337 3.56584C15.7511 2.88324 14.8253 2.49976 13.86 2.49976C12.8946 2.49976 11.9688 2.88324 11.2862 3.56584L9.99956 4.8525" stroke="black" stroke-width="1.66667" stroke-linecap="round" stroke-linejoin="round"/>
</g>
</g>
</g>
<defs>
<filter id="filter0_d_0_1" x="-126" y="-617" width="573" height="767" filterUnits="userSpaceOnUse" color-interpolation-filters="sRGB">
<feFlood flood-opacity="0" result="BackgroundImageFix"/>
<feColorMatrix in="SourceAlpha" type="matrix" values="0 0 0 0 0 0 0 0 0 0 0 0 0 0 0 0 0 0 127 0" result="hardAlpha"/>
<feOffset dx="2" dy="2"/>
<feGaussianBlur stdDeviation="50"/>
<feComposite in2="hardAlpha" operator="out"/>
<feColorMatrix type="matrix" values="0 0 0 0 0 0 0 0 0 0 0 0 0 0 0 0 0 0 0.2 0"/>
<feBlend mode="normal" in2="BackgroundImageFix" result="effect1_dropShadow_0_1"/>
<feBlend mode="normal" in="SourceGraphic" in2="effect1_dropShadow_0_1" result="shape"/>
</filter>
<filter id="filter1_d_0_1" x="-126" y="15" width="573" height="767" filterUnits="userSpaceOnUse" color-interpolation-filters="sRGB">
<feFlood flood-opacity="0" result="BackgroundImageFix"/>
<feColorMatrix in="SourceAlpha" type="matrix" values="0 0 0 0 0 0 0 0 0 0 0 0 0 0 0 0 0 0 127 0" result="hardAlpha"/>
<feOffset dx="2" dy="2"/>
<feGaussianBlur stdDeviation="50"/>
<feComposite in2="hardAlpha" operator="out"/>
<feColorMatrix type="matrix" values="0 0 0 0 0 0 0 0 0 0 0 0 0 0 0 0 0 0 0.2 0"/>
<feBlend mode="normal" in2="BackgroundImageFix" result="effect1_dropShadow_0_1"/>
<feBlend mode="normal" in="SourceGraphic" in2="effect1_dropShadow_0_1" result="shape"/>
</filter>
</defs>
</svg>
